<?xml version="1.0" encoding="UTF-8"?>
<svg width="206px" height="164px" viewBox="0 0 206 164" version="1.1" xmlns="http://www.w3.org/2000/svg" xmlns:xlink="http://www.w3.org/1999/xlink">
    <!-- Generator: sketchtool 63.1 (101010) - https://sketch.com -->
    <title>249AFC43-81E8-4BF7-9D27-829567973739</title>
    <desc>Created with sketchtool.</desc>
    <g id="CDT-DIGITAL_transaccion" stroke="none" stroke-width="1" fill="none" fill-rule="evenodd" opacity="0.4">
        <g id="4.-CDT-Digital_TX_vers_Desktop_transferencia_creacion_cdt" transform="translate(-805.000000, -646.000000)">
            <g id="sello" transform="translate(803.000000, 644.000000)">
                <path d="M21.2998234,31.012767 L188.781166,30.8289291 C193.199441,30.8240793 196.785092,34.4018676 196.789942,38.8201429 C196.789949,38.8259905 196.789949,38.8318381 196.789942,38.8376856 L196.691391,128.824951 C196.686559,133.236377 193.111603,136.811342 188.700177,136.816185 L21.2188344,137.000023 C16.800559,137.004872 13.2149077,133.427084 13.2100579,129.008809 C13.2100515,129.002961 13.2100515,128.997114 13.2100579,128.991266 L13.3086094,39.0040008 C13.3134407,34.5925747 16.8883973,31.0176092 21.2998234,31.012767 Z" id="Rectangle" stroke="#333333" fill-opacity="0.7" fill="#F6F8FA" opacity="0.346865699" transform="translate(105.000000, 83.914476) rotate(-22.000000) translate(-105.000000, -83.914476) "></path>
                <text id="CDT-creado-exitosame" opacity="0.5" transform="translate(108.953641, 98.018730) rotate(-22.000000) translate(-108.953641, -98.018730) " font-family="DTLArgoST" font-size="22" font-weight="normal" line-spacing="28" letter-spacing="-0.55" fill="#5C5C5C">
                    <tspan x="56.8755158" y="91.0187303">CDT creado </tspan>
                    <tspan x="47.0593049" y="119.01873">exitosamente</tspan>
                </text>
                <g id="Logo/01-Banco-de-Bogota/01-Lockups/01-Horizontal/positive" opacity="0.5" transform="translate(92.000000, 60.000000) rotate(-22.000000) translate(-92.000000, -60.000000) translate(32.000000, 48.000000)" fill="#666666" fill-rule="nonzero">
                    <g id="tipo" transform="translate(0.000000, 6.000000)">
                        <path d="M27.0663512,7.81003115 C26.3959772,7.97620202 25.8931966,8.05928746 25.3904161,8.05928746 C24.1334648,8.05928746 23.8820746,6.97917677 23.8820746,6.06523696 C23.8820746,4.65278451 24.3848551,3.90501557 25.3904161,3.90501557 C25.8931966,3.90501557 26.2283836,3.98810101 26.2283836,3.98810101 L27.1501479,4.32044276 L27.1501479,3.15724663 L27.0663512,3.0741612 C26.7311642,2.90799032 25.9769934,2.65873401 25.0552291,2.65873401 C23.2117005,2.65873401 22.038546,3.98810101 22.038546,5.98215152 C22.038546,7.89311659 23.2117005,9.13939815 24.8876356,9.13939815 C25.6418064,9.13939815 26.3121804,8.97322728 27.3177414,8.55780009 L27.4853349,8.47471465 L27.2339447,7.56077484 L27.0663512,7.81003115 Z" id="Shape"></path>
                        <path d="M5.8657727,4.56969908 C6.70374023,4.23735733 7.03892724,3.65575926 7.03892724,2.65873401 C7.03892724,1.74479419 6.61994348,0.997025253 5.8657727,0.74776894 C5.36299218,0.498512626 4.86021167,0.498512626 3.26807336,0.498512626 L0,0.498512626 L0,1.41245244 C0,1.41245244 0.754170776,1.49553788 1.00556103,1.57862332 L1.00556103,9.22248359 L3.60326037,9.22248359 C4.86021167,9.22248359 5.44678894,9.13939815 5.94956945,8.89014184 C6.78753698,8.47471465 7.2903175,7.72694571 7.2903175,6.72992046 C7.37411425,5.56672433 6.87133374,4.81895539 5.8657727,4.56969908 Z M2.8490896,1.57862332 L3.18427661,1.57862332 L3.35187011,1.57862332 C4.02224414,1.57862332 4.52502465,1.57862332 4.86021167,1.82787963 C5.11160193,1.99405051 5.19539868,2.32639226 5.19539868,2.65873401 C5.19539868,3.48958839 4.94400842,3.90501557 3.93844738,3.98810101 L3.18427661,4.07118645 L2.8490896,4.65278451 L2.8490896,1.57862332 Z M4.94400842,7.72694571 C4.52502465,8.05928746 3.93844738,8.05928746 3.18427661,8.05928746 L2.8490896,8.05928746 L2.8490896,5.23438258 L2.93288635,5.23438258 L3.51946362,5.23438258 C4.18983764,5.23438258 4.69261816,5.23438258 5.02780517,5.48363889 C5.27919543,5.7328952 5.44678894,6.06523696 5.44678894,6.56374958 C5.44678894,7.06226221 5.27919543,7.4776894 4.94400842,7.72694571 Z" id="Shape"></path>
                        <path d="M57.2331822,4.56969908 C58.0711497,4.23735733 58.4063367,3.65575926 58.4063367,2.65873401 C58.4063367,1.74479419 57.987353,0.997025253 57.2331822,0.74776894 C56.7304017,0.498512626 56.2276212,0.498512626 54.6354829,0.498512626 L51.3674095,0.498512626 L51.3674095,1.41245244 C51.3674095,1.41245244 52.1215803,1.49553788 52.3729705,1.57862332 L52.3729705,9.22248359 L54.9706699,9.22248359 C56.2276212,9.22248359 56.8141984,9.13939815 57.316979,8.89014184 C58.1549465,8.47471465 58.657727,7.72694571 58.657727,6.72992046 C58.7415238,5.56672433 58.2387432,4.81895539 57.2331822,4.56969908 Z M54.2164991,1.57862332 L54.5516861,1.57862332 L54.7192796,1.57862332 C55.3896536,1.57862332 55.8924342,1.57862332 56.2276212,1.82787963 C56.4790114,1.99405051 56.5628082,2.32639226 56.5628082,2.65873401 C56.5628082,3.48958839 56.3114179,3.90501557 55.3058569,3.98810101 L54.5516861,4.07118645 L54.2164991,4.65278451 L54.2164991,1.57862332 Z M56.3114179,7.72694571 C55.8924342,8.05928746 55.3058569,8.05928746 54.5516861,8.05928746 L54.2164991,8.05928746 L54.2164991,5.23438258 L54.3002959,5.23438258 L54.8868731,5.23438258 C55.5572472,5.23438258 56.0600277,5.23438258 56.3952147,5.48363889 C56.6466049,5.7328952 56.8141984,6.06523696 56.8141984,6.56374958 C56.8979952,7.06226221 56.6466049,7.4776894 56.3114179,7.72694571 Z" id="Shape"></path>
                        <path d="M19.4408467,2.74181945 C18.9380661,2.74181945 18.2676921,2.90799032 17.4297246,3.24033207 L17.4297246,2.74181945 L14.8320253,3.0741612 L14.8320253,3.98810101 L15.8375863,3.98810101 L15.8375863,9.13939815 L17.5973181,9.13939815 L17.5973181,4.32044276 C17.8487084,4.23735733 18.3514889,4.07118645 18.9380661,4.07118645 C19.1894564,4.07118645 19.4408467,4.15427189 19.5246434,4.23735733 C19.6922369,4.4035282 19.6922369,4.73586995 19.6922369,5.15129714 L19.6922369,9.13939815 L21.4519687,9.13939815 L21.4519687,5.0682117 C21.4519687,4.15427189 21.368172,3.82193014 21.1167817,3.40650295 C20.697798,2.99107576 20.1950174,2.74181945 19.4408467,2.74181945 Z" id="Shape"></path>
                        <path d="M30.9210018,2.74181945 C28.9936765,2.74181945 27.7367252,3.98810101 27.7367252,5.98215152 C27.7367252,7.97620202 28.9098797,9.22248359 30.9210018,9.22248359 C32.8483271,9.22248359 34.0214817,7.97620202 34.0214817,5.98215152 C34.0214817,3.98810101 32.8483271,2.74181945 30.9210018,2.74181945 Z M30.9210018,8.1423729 C30.3344245,8.1423729 29.5802538,7.89311659 29.5802538,5.98215152 C29.5802538,4.07118645 30.2506278,3.82193014 30.9210018,3.82193014 C31.5075791,3.82193014 32.2617499,4.07118645 32.2617499,5.89906608 C32.1779531,7.89311659 31.5075791,8.1423729 30.9210018,8.1423729 Z" id="Shape"></path>
                        <path d="M76.4226386,2.74181945 C74.4953133,2.74181945 73.238362,3.98810101 73.238362,5.98215152 C73.238362,7.97620202 74.4115165,9.22248359 76.4226386,9.22248359 C78.3499639,9.22248359 79.6069152,7.97620202 79.6069152,5.98215152 C79.6069152,3.98810101 78.4337607,2.74181945 76.4226386,2.74181945 Z M76.4226386,8.1423729 C75.8360613,8.1423729 75.0818906,7.89311659 75.0818906,5.98215152 C75.0818906,4.07118645 75.7522646,3.82193014 76.4226386,3.82193014 C77.0092159,3.82193014 77.7633867,4.07118645 77.7633867,5.89906608 C77.7633867,7.89311659 77.0930126,8.1423729 76.4226386,8.1423729 Z" id="Shape"></path>
                        <path d="M83.7967529,7.97620202 L82.5398016,8.1423729 C82.2884113,8.1423729 82.2046146,8.05928746 82.1208178,7.97620202 C82.1208178,7.89311659 82.0370211,7.89311659 82.0370211,7.39460396 L82.0370211,3.98810101 L83.7967529,3.98810101 L83.7967529,2.90799032 L82.0370211,2.90799032 L82.0370211,1.24628157 L81.7856308,1.24628157 L80.2772892,1.41245244 L80.2772892,7.31151852 C80.2772892,7.97620202 80.361086,8.39162921 80.6124763,8.72397096 C80.8638665,9.05631271 81.2828503,9.22248359 81.8694276,9.22248359 C82.4560048,9.22248359 83.0425821,9.05631271 83.7129561,8.8070564 L83.8805496,8.72397096 L83.7967529,7.97620202 Z" id="Shape"></path>
                        <path d="M62.7637679,2.74181945 C60.8364426,2.74181945 59.5794913,3.98810101 59.5794913,5.98215152 C59.5794913,7.97620202 60.7526458,9.22248359 62.7637679,9.22248359 C64.6910932,9.22248359 65.8642478,7.97620202 65.8642478,5.98215152 C65.8642478,3.98810101 64.6910932,2.74181945 62.7637679,2.74181945 Z M62.7637679,8.1423729 C62.1771906,8.1423729 61.4230199,7.89311659 61.4230199,5.98215152 C61.4230199,4.07118645 62.0933939,3.82193014 62.7637679,3.82193014 C63.3503452,3.82193014 64.1045159,4.07118645 64.1045159,5.89906608 C64.1045159,7.89311659 63.4341419,8.1423729 62.7637679,8.1423729 Z" id="Shape"></path>
                        <path d="M70.8082562,3.24033207 C70.3892724,2.99107576 69.8864919,2.90799032 69.4675081,2.90799032 C67.7077763,2.90799032 66.450825,4.32044276 66.450825,6.23140783 C66.450825,8.05928746 67.4563861,9.22248359 68.9647276,9.22248359 C69.3837114,9.22248359 69.8026951,9.13939815 70.7244594,8.72397096 L70.7244594,9.22248359 C70.7244594,10.3025943 70.3054757,10.634936 68.9647276,10.634936 C68.3781503,10.634936 67.5401828,10.5518506 66.8698088,10.3856797 L66.8698088,11.4657904 C68.2105568,11.7150467 68.7133374,11.7981322 69.3837114,11.7981322 C70.2216789,11.7981322 70.9758497,11.6319613 71.4786302,11.382705 C72.232801,10.9672778 72.4841912,10.3856797 72.4841912,9.30556903 L72.4841912,2.99107576 L70.7244594,2.99107576 L70.7244594,3.24033207 L70.8082562,3.24033207 Z M70.8082562,7.89311659 C70.4730692,7.97620202 70.3054757,7.97620202 69.9702886,7.97620202 C68.8809309,7.97620202 68.3781503,7.31151852 68.3781503,6.06523696 C68.3781503,4.73586995 69.0485244,4.07118645 70.1378822,4.07118645 C70.3054757,4.07118645 70.4730692,4.07118645 70.8082562,4.15427189 L70.8082562,7.89311659 Z" id="Shape"></path>
                        <path d="M13.910261,3.0741612 L12.2343259,3.0741612 L12.2343259,3.32341751 C11.8153422,3.0741612 11.3963584,2.99107576 10.8935779,2.99107576 C9.21764282,2.99107576 7.96069152,4.32044276 7.96069152,6.31449327 C7.96069152,8.1423729 8.8824558,9.30556903 10.4745941,9.30556903 C10.8935779,9.30556903 11.3963584,9.13939815 12.1505292,8.64088553 L12.1505292,9.22248359 L12.1505292,9.22248359 L14.580635,8.97322728 L14.580635,7.97620202 L13.910261,7.97620202 L13.910261,3.0741612 L13.910261,3.0741612 Z M12.2343259,7.97620202 C11.8991389,8.05928746 11.7315454,8.05928746 11.3963584,8.05928746 C10.3070006,8.05928746 9.72042333,7.39460396 9.72042333,6.14832239 C9.72042333,4.81895539 10.3907974,4.07118645 11.5639519,4.07118645 C11.8153422,4.07118645 11.8991389,4.07118645 12.2343259,4.15427189 L12.2343259,7.97620202 Z" id="Shape"></path>
                        <path d="M90.2491028,3.0741612 L88.5731678,3.0741612 L88.5731678,3.32341751 C88.154184,3.0741612 87.7352003,2.99107576 87.2324197,2.99107576 C85.5564847,2.99107576 84.2995334,4.32044276 84.2995334,6.31449327 C84.2995334,8.1423729 85.2212977,9.30556903 86.813436,9.30556903 C87.2324197,9.30556903 87.7352003,9.13939815 88.489371,8.64088553 L88.489371,9.22248359 L90.9194769,8.97322728 L90.9194769,7.97620202 L90.2491028,7.97620202 L90.2491028,3.0741612 Z M88.489371,7.97620202 C88.154184,8.05928746 87.9865905,8.05928746 87.6514035,8.05928746 C86.5620457,8.05928746 85.9754684,7.39460396 85.9754684,6.14832239 C85.9754684,4.81895539 86.6458425,4.07118645 87.818997,4.07118645 C88.0703873,4.07118645 88.154184,4.07118645 88.489371,4.15427189 L88.489371,7.97620202 Z" id="Shape"></path>
                        <polygon id="Shape" points="89.4111353 1.49553788 88.9921515 0.166170875 88.824558 0.249256313 86.0592652 1.329367 86.3106555 2.07713594"></polygon>
                        <path d="M42.401157,0 L42.3173602,0 L42.1497667,0 L39.8872544,0.249256313 L39.8872544,0.997025253 L40.7252219,0.997025253 L40.7252219,2.99107576 C40.0548479,2.74181945 39.0492868,2.57564857 38.2113193,2.82490488 C37.0381648,3.24033207 36.283994,4.32044276 36.283994,5.89906608 C36.283994,7.31151852 36.954368,8.47471465 38.1275226,8.89014184 C38.9654901,9.13939815 40.1386446,8.89014184 40.8090186,8.55780009 L40.8090186,9.05631271 L43.1553277,8.72397096 L43.1553277,7.97620202 L42.401157,7.97620202 C42.3173602,7.97620202 42.401157,0 42.401157,0 Z M40.6414251,7.89311659 C39.8872544,8.1423729 38.9654901,8.22545834 38.4627096,7.56077484 C38.1275226,7.14534765 38.0437258,6.56374958 38.0437258,5.98215152 L38.0437258,5.81598064 C38.0437258,5.15129714 38.2113193,4.73586995 38.5465063,4.32044276 C39.0492868,3.7388447 39.9710511,3.82193014 40.6414251,4.15427189 C40.7252219,4.15427189 40.6414251,7.72694571 40.6414251,7.89311659 Z" id="Shape"></path>
                        <path d="M46.5909946,2.74181945 C46.1720108,2.74181945 45.8368238,2.74181945 45.5016368,2.90799032 C44.2446855,3.32341751 43.4905147,4.4035282 43.4905147,6.06523696 C43.4905147,7.56077484 44.2446855,8.72397096 45.5016368,9.13939815 C46.5909946,9.4717399 48.1831329,9.13939815 49.2724907,8.55780009 L49.3562874,8.55780009 L49.1048972,7.64386027 L48.5183199,7.81003115 C47.6803524,8.05928746 46.5909946,8.47471465 45.9206206,7.64386027 C45.5854336,7.22843308 45.5016368,6.56374958 45.5016368,6.06523696 L48.8535069,6.14832239 L49.3562874,6.14832239 L49.3562874,6.06523696 L49.3562874,5.64980977 C49.2724907,2.65873401 46.6747913,2.74181945 46.5909946,2.74181945 Z M45.3340433,5.23438258 C45.3340433,5.15129714 45.4178401,3.90501557 46.5071978,3.90501557 C47.6803524,3.90501557 47.6803524,5.15129714 47.6803524,5.23438258 L45.3340433,5.23438258 Z" id="Shape"></path>
                    </g>
                    <g id="imagotipo/horizontal/positive" transform="translate(96.000000, 0.000000)">
                        <g id="monogram">
                            <path d="M11.8678499,0.00354017465 C5.5025438,0.116825764 0.240326157,4.65178949 0.00791443465,10.8824969 C-0.221028456,17.1167444 4.54514626,22.3632833 10.6537588,22.5969348 C13.761832,22.7173007 16.6201493,21.5171815 18.7118548,19.4851213 C20.7237772,17.5274047 20.6405252,14.0828148 19.0413938,15.6440318 C17.2826962,17.3610165 14.8232945,18.3876671 12.1418876,18.2885423 C7.02882974,18.100913 3.03967332,13.8881052 3.23045906,8.87875803 C3.40736947,4.23050871 7.92378831,0.552267246 11.9649772,0.329236243 L12.0690422,0 C12.0031344,0.00354017465 11.9372266,0.00354017465 11.8678499,0.00354017465 Z" id="Shape"></path>
                            <path d="M12.759929,0.329411745 C17.8907021,0.64813841 22.113803,5.11385314 7.18224852,9.57956787 C10.9861573,10.3445119 13.7957839,12.1683367 13.7957839,12.1683367 C26.5794118,5.5246564 19.3076408,-0.0211875876 12.0739782,6.08567982e-05 L11.9700463,0.329411745 C12.2368049,0.311704708 12.5000991,0.311704708 12.759929,0.329411745 Z" id="Shape"></path>
                            <path d="M6.50313125,2.67770972 C8.11489116,1.3032762 10.1156966,0.434463299 12.015767,0.327642041 C12.2832357,0.313399206 12.5472309,0.313399206 12.8077524,0.331202749 C15.3296009,0.487873928 17.6326113,1.64510423 17.5631389,3.31863727 L18.8240631,1.7982147 C17.1393572,0.655227233 14.6279296,-0.00706456897 12.1199756,5.68482516e-05 L11.9185056,5.68482516e-05 C9.55644366,0.0427853516 7.34722103,0.694395028 5.49230769,1.81957895 L6.50313125,2.67770972 Z" id="Shape"></path>
                            <path d="M18.2615828,17.6513026 C18.2581107,17.5911638 18.0497847,16.1159944 18.0497847,16.1159944 C17.5324417,12.6102562 18.2546386,9.21418277 23.5183432,8.93471423 C15.8831939,5.19549592 10.8069827,8.77552329 7.08836292,9.61392891 C10.4736611,10.0419757 17.6088279,13.9403849 18.2615828,17.6513026 Z" id="Shape"></path>
                            <path d="M20.7777114,9.95591182 C17.5238241,11.3243418 17.8572,15.1141127 18.1697398,17.3369251 C18.2322478,17.517728 18.5586784,18.9003386 17.80511,20.3432168 C16.8709631,21.9668979 15.356881,23.1935216 12.4398422,23.9876364 C19.9164905,24.3421519 28.4731376,17.0107708 20.7777114,9.95591182 Z" id="Shape"></path>
                        </g>
                    </g>
                </g>
            </g>
        </g>
    </g>
</svg>